<mxfile modified="2020-09-28T15:20:35.709Z" host="app.diagrams.net" agent="5.0 (Windows NT 10.0; Win64; x64) AppleWebKit/537.36 (KHTML, like Gecko) Chrome/85.0.4183.121 Safari/537.36" etag="S7MjBjkQ8zQOSljE-LNl" version="13.7.5" type="github">
  <diagram id="d1ab7348-05c3-a1e3-ca4d-12c340fd6b49" name="Page-1">
    <mxGraphModel dx="2351" dy="732" grid="1" gridSize="10" guides="1" tooltips="1" connect="1" arrows="1" fold="1" page="1" pageScale="1" pageWidth="1169" pageHeight="827" background="#ffffff" math="0" shadow="0">
      <root>
        <mxCell id="0" />
        <mxCell id="1" parent="0" />
        <mxCell id="EbYcrWT6pLzNrer3iOrH-4" value="&lt;font style=&quot;font-size: 20px&quot;&gt;Overall Step Function&lt;/font&gt;" style="points=[[0,0],[0.25,0],[0.5,0],[0.75,0],[1,0],[1,0.25],[1,0.5],[1,0.75],[1,1],[0.75,1],[0.5,1],[0.25,1],[0,1],[0,0.75],[0,0.5],[0,0.25]];outlineConnect=0;gradientColor=none;html=1;whiteSpace=wrap;fontSize=20;fontStyle=0;shape=mxgraph.aws4.group;grIcon=mxgraph.aws4.group_aws_step_functions_workflow;strokeColor=#CD2264;fillColor=none;verticalAlign=top;align=left;spacingLeft=30;fontColor=#CD2264;dashed=0;" parent="1" vertex="1">
          <mxGeometry x="-990" y="300" width="400" height="880" as="geometry" />
        </mxCell>
        <mxCell id="2KuFmGQ5bhaeHU06HSTh-211" style="rounded=0;orthogonalLoop=1;jettySize=auto;html=1;fontSize=20;align=center;" parent="1" source="2KuFmGQ5bhaeHU06HSTh-163" target="2KuFmGQ5bhaeHU06HSTh-164" edge="1">
          <mxGeometry relative="1" as="geometry">
            <mxPoint x="-1114" y="249" as="sourcePoint" />
          </mxGeometry>
        </mxCell>
        <mxCell id="6IBdbGaRHw7W4EomRAR7-20" style="edgeStyle=none;rounded=0;orthogonalLoop=1;jettySize=auto;html=1;" parent="1" source="2KuFmGQ5bhaeHU06HSTh-163" target="EbYcrWT6pLzNrer3iOrH-2" edge="1">
          <mxGeometry relative="1" as="geometry">
            <mxPoint x="-150" y="330" as="targetPoint" />
          </mxGeometry>
        </mxCell>
        <mxCell id="EbYcrWT6pLzNrer3iOrH-10" style="rounded=0;orthogonalLoop=1;jettySize=auto;html=1;entryX=0.5;entryY=0;entryDx=0;entryDy=0;" parent="1" target="EbYcrWT6pLzNrer3iOrH-9" edge="1">
          <mxGeometry relative="1" as="geometry">
            <mxPoint x="-790" y="490" as="sourcePoint" />
          </mxGeometry>
        </mxCell>
        <mxCell id="2KuFmGQ5bhaeHU06HSTh-163" value="&lt;font color=&quot;#000000&quot;&gt;&lt;span style=&quot;background-color: rgb(255 , 255 , 255)&quot;&gt;Kick off Strategy &lt;br&gt;and Risk Step &lt;br&gt;Functions&lt;/span&gt;&lt;/font&gt;" style="outlineConnect=0;fontColor=#232F3E;gradientColor=none;fillColor=#D05C17;strokeColor=none;dashed=0;verticalLabelPosition=bottom;verticalAlign=top;align=center;html=1;fontSize=20;fontStyle=0;aspect=fixed;pointerEvents=1;shape=mxgraph.aws4.lambda_function;" parent="1" vertex="1">
          <mxGeometry x="-829" y="355" width="78" height="78" as="geometry" />
        </mxCell>
        <mxCell id="2KuFmGQ5bhaeHU06HSTh-207" style="edgeStyle=orthogonalEdgeStyle;rounded=0;orthogonalLoop=1;jettySize=auto;html=1;fontSize=20;align=center;curved=1;" parent="1" source="SEy2dUGbwva-OiN2ua2p-1" target="EbYcrWT6pLzNrer3iOrH-4" edge="1">
          <mxGeometry relative="1" as="geometry">
            <mxPoint x="-755" y="220" as="sourcePoint" />
            <mxPoint x="-1174" y="59" as="targetPoint" />
            <Array as="points">
              <mxPoint x="-790" y="99" />
            </Array>
          </mxGeometry>
        </mxCell>
        <mxCell id="2KuFmGQ5bhaeHU06HSTh-212" value="" style="group;align=center;fontSize=20;" parent="1" vertex="1" connectable="0">
          <mxGeometry x="-620" y="180" width="190" height="86" as="geometry" />
        </mxCell>
        <mxCell id="2KuFmGQ5bhaeHU06HSTh-164" value="&lt;font style=&quot;font-size: 20px&quot;&gt;Strategy Calc Step Function&lt;/font&gt;" style="points=[[0,0],[0.25,0],[0.5,0],[0.75,0],[1,0],[1,0.25],[1,0.5],[1,0.75],[1,1],[0.75,1],[0.5,1],[0.25,1],[0,1],[0,0.75],[0,0.5],[0,0.25]];outlineConnect=0;gradientColor=none;html=1;whiteSpace=wrap;fontSize=20;fontStyle=0;shape=mxgraph.aws4.group;grIcon=mxgraph.aws4.group_aws_step_functions_workflow;strokeColor=#CD2264;fillColor=none;verticalAlign=top;align=left;spacingLeft=30;fontColor=#CD2264;dashed=0;" parent="2KuFmGQ5bhaeHU06HSTh-212" vertex="1">
          <mxGeometry width="178.82352941176472" height="86" as="geometry" />
        </mxCell>
        <mxCell id="SEy2dUGbwva-OiN2ua2p-1" value="&lt;font style=&quot;font-size: 20px&quot;&gt;EventBridge Event &lt;br&gt;triggered every x hours&lt;/font&gt;" style="outlineConnect=0;fontColor=#232F3E;gradientColor=#F34482;gradientDirection=north;fillColor=#BC1356;strokeColor=#ffffff;dashed=0;verticalLabelPosition=bottom;verticalAlign=top;align=center;html=1;fontSize=12;fontStyle=0;aspect=fixed;shape=mxgraph.aws4.resourceIcon;resIcon=mxgraph.aws4.eventbridge;" parent="1" vertex="1">
          <mxGeometry x="-1060" y="60" width="78" height="78" as="geometry" />
        </mxCell>
        <mxCell id="EbYcrWT6pLzNrer3iOrH-31" style="rounded=0;orthogonalLoop=1;jettySize=auto;html=1;" parent="1" target="EbYcrWT6pLzNrer3iOrH-25" edge="1">
          <mxGeometry relative="1" as="geometry">
            <mxPoint x="-190" y="500" as="sourcePoint" />
          </mxGeometry>
        </mxCell>
        <mxCell id="EbYcrWT6pLzNrer3iOrH-32" value="&lt;font style=&quot;font-size: 20px&quot;&gt;Get Results&lt;/font&gt;" style="edgeLabel;html=1;align=center;verticalAlign=middle;resizable=0;points=[];" parent="EbYcrWT6pLzNrer3iOrH-31" vertex="1" connectable="0">
          <mxGeometry x="-0.0422" y="4" relative="1" as="geometry">
            <mxPoint as="offset" />
          </mxGeometry>
        </mxCell>
        <mxCell id="SEy2dUGbwva-OiN2ua2p-2" value="&lt;font style=&quot;font-size: 20px&quot;&gt;DynamoDB&lt;/font&gt;" style="outlineConnect=0;fontColor=#232F3E;gradientColor=#4D72F3;gradientDirection=north;fillColor=#3334B9;strokeColor=#ffffff;dashed=0;verticalLabelPosition=bottom;verticalAlign=top;align=center;html=1;fontSize=12;fontStyle=0;aspect=fixed;shape=mxgraph.aws4.resourceIcon;resIcon=mxgraph.aws4.dynamodb;" parent="1" vertex="1">
          <mxGeometry x="-220" y="390" width="78" height="78" as="geometry" />
        </mxCell>
        <mxCell id="SEy2dUGbwva-OiN2ua2p-3" value="" style="endArrow=classic;startArrow=classic;html=1;" parent="1" source="2KuFmGQ5bhaeHU06HSTh-163" target="SEy2dUGbwva-OiN2ua2p-2" edge="1">
          <mxGeometry width="50" height="50" relative="1" as="geometry">
            <mxPoint x="-820" y="360" as="sourcePoint" />
            <mxPoint x="-770" y="310" as="targetPoint" />
          </mxGeometry>
        </mxCell>
        <mxCell id="SEy2dUGbwva-OiN2ua2p-4" value="&lt;font style=&quot;font-size: 20px&quot;&gt;Strategy and &lt;br&gt;Product Data&lt;/font&gt;" style="edgeLabel;html=1;align=center;verticalAlign=middle;resizable=0;points=[];" parent="SEy2dUGbwva-OiN2ua2p-3" vertex="1" connectable="0">
          <mxGeometry x="-0.2414" y="1" relative="1" as="geometry">
            <mxPoint x="29.33" y="1" as="offset" />
          </mxGeometry>
        </mxCell>
        <mxCell id="EbYcrWT6pLzNrer3iOrH-1" value="" style="group;align=center;fontSize=20;" parent="1" vertex="1" connectable="0">
          <mxGeometry x="-650" y="10" width="190" height="86" as="geometry" />
        </mxCell>
        <mxCell id="EbYcrWT6pLzNrer3iOrH-2" value="&lt;font style=&quot;font-size: 20px&quot;&gt;Risk Calc Step Function&lt;/font&gt;" style="points=[[0,0],[0.25,0],[0.5,0],[0.75,0],[1,0],[1,0.25],[1,0.5],[1,0.75],[1,1],[0.75,1],[0.5,1],[0.25,1],[0,1],[0,0.75],[0,0.5],[0,0.25]];outlineConnect=0;gradientColor=none;html=1;whiteSpace=wrap;fontSize=20;fontStyle=0;shape=mxgraph.aws4.group;grIcon=mxgraph.aws4.group_aws_step_functions_workflow;strokeColor=#CD2264;fillColor=none;verticalAlign=top;align=left;spacingLeft=30;fontColor=#CD2264;dashed=0;" parent="EbYcrWT6pLzNrer3iOrH-1" vertex="1">
          <mxGeometry width="170" height="86" as="geometry" />
        </mxCell>
        <mxCell id="EbYcrWT6pLzNrer3iOrH-5" style="rounded=0;orthogonalLoop=1;jettySize=auto;html=1;exitX=1;exitY=0.5;exitDx=0;exitDy=0;" parent="1" source="EbYcrWT6pLzNrer3iOrH-2" target="SEy2dUGbwva-OiN2ua2p-2" edge="1">
          <mxGeometry relative="1" as="geometry" />
        </mxCell>
        <mxCell id="EbYcrWT6pLzNrer3iOrH-6" value="&lt;font style=&quot;font-size: 20px&quot;&gt;Save results&lt;br&gt;&lt;/font&gt;" style="edgeLabel;html=1;align=center;verticalAlign=middle;resizable=0;points=[];" parent="EbYcrWT6pLzNrer3iOrH-5" vertex="1" connectable="0">
          <mxGeometry x="-0.3739" y="19" relative="1" as="geometry">
            <mxPoint x="-38.9" y="-16.84" as="offset" />
          </mxGeometry>
        </mxCell>
        <mxCell id="EbYcrWT6pLzNrer3iOrH-19" style="edgeStyle=orthogonalEdgeStyle;curved=1;rounded=0;orthogonalLoop=1;jettySize=auto;html=1;exitX=0;exitY=0.5;exitDx=0;exitDy=0;" parent="1" source="EbYcrWT6pLzNrer3iOrH-9" target="EbYcrWT6pLzNrer3iOrH-11" edge="1">
          <mxGeometry relative="1" as="geometry" />
        </mxCell>
        <mxCell id="EbYcrWT6pLzNrer3iOrH-9" value="&lt;font style=&quot;font-size: 20px&quot;&gt;Wait x seconds&lt;/font&gt;" style="rounded=1;whiteSpace=wrap;html=1;dashed=1;" parent="1" vertex="1">
          <mxGeometry x="-850" y="590" width="120" height="60" as="geometry" />
        </mxCell>
        <mxCell id="EbYcrWT6pLzNrer3iOrH-20" style="edgeStyle=orthogonalEdgeStyle;curved=1;rounded=0;orthogonalLoop=1;jettySize=auto;html=1;" parent="1" target="EbYcrWT6pLzNrer3iOrH-16" edge="1">
          <mxGeometry relative="1" as="geometry">
            <mxPoint x="-901" y="820" as="sourcePoint" />
            <Array as="points">
              <mxPoint x="-901" y="859" />
            </Array>
          </mxGeometry>
        </mxCell>
        <mxCell id="EbYcrWT6pLzNrer3iOrH-11" value="&lt;font style=&quot;font-size: 20px&quot;&gt;Get Status of other &lt;br&gt;Step Functions&lt;/font&gt;" style="outlineConnect=0;fontColor=#232F3E;gradientColor=none;fillColor=#D05C17;strokeColor=none;dashed=0;verticalLabelPosition=bottom;verticalAlign=top;align=center;html=1;fontSize=12;fontStyle=0;aspect=fixed;pointerEvents=1;shape=mxgraph.aws4.lambda_function;" parent="1" vertex="1">
          <mxGeometry x="-940" y="700" width="78" height="78" as="geometry" />
        </mxCell>
        <mxCell id="EbYcrWT6pLzNrer3iOrH-21" style="edgeStyle=orthogonalEdgeStyle;curved=1;rounded=0;orthogonalLoop=1;jettySize=auto;html=1;entryX=1;entryY=0.5;entryDx=0;entryDy=0;" parent="1" source="EbYcrWT6pLzNrer3iOrH-16" target="EbYcrWT6pLzNrer3iOrH-9" edge="1">
          <mxGeometry relative="1" as="geometry">
            <Array as="points">
              <mxPoint x="-671" y="859" />
              <mxPoint x="-671" y="620" />
            </Array>
          </mxGeometry>
        </mxCell>
        <mxCell id="EbYcrWT6pLzNrer3iOrH-28" style="rounded=0;orthogonalLoop=1;jettySize=auto;html=1;entryX=0.5;entryY=0;entryDx=0;entryDy=0;" parent="1" target="EbYcrWT6pLzNrer3iOrH-22" edge="1">
          <mxGeometry relative="1" as="geometry">
            <mxPoint x="-820" y="930" as="sourcePoint" />
          </mxGeometry>
        </mxCell>
        <mxCell id="EbYcrWT6pLzNrer3iOrH-30" style="edgeStyle=none;rounded=0;orthogonalLoop=1;jettySize=auto;html=1;" parent="1" target="EbYcrWT6pLzNrer3iOrH-25" edge="1">
          <mxGeometry relative="1" as="geometry">
            <mxPoint x="-740" y="930" as="sourcePoint" />
          </mxGeometry>
        </mxCell>
        <mxCell id="EbYcrWT6pLzNrer3iOrH-16" value="&lt;span style=&quot;font-size: 20px&quot;&gt;Job Complete?&lt;/span&gt;" style="outlineConnect=0;fontColor=#232F3E;gradientColor=none;fillColor=#D05C17;strokeColor=none;dashed=0;verticalLabelPosition=bottom;verticalAlign=top;align=center;html=1;fontSize=12;fontStyle=0;aspect=fixed;pointerEvents=1;shape=mxgraph.aws4.lambda_function;" parent="1" vertex="1">
          <mxGeometry x="-820" y="820" width="78" height="78" as="geometry" />
        </mxCell>
        <mxCell id="EbYcrWT6pLzNrer3iOrH-22" value="&lt;font style=&quot;font-size: 20px&quot;&gt;Job Failed&lt;/font&gt;" style="rounded=1;whiteSpace=wrap;html=1;dashed=1;" parent="1" vertex="1">
          <mxGeometry x="-961" y="1039" width="120" height="60" as="geometry" />
        </mxCell>
        <mxCell id="EbYcrWT6pLzNrer3iOrH-25" value="&lt;span style=&quot;font-size: 20px&quot;&gt;Final Aggregation&lt;br&gt;using results from DB&lt;br&gt;&lt;/span&gt;" style="outlineConnect=0;fontColor=#232F3E;gradientColor=none;fillColor=#D05C17;strokeColor=none;dashed=0;verticalLabelPosition=bottom;verticalAlign=top;align=center;html=1;fontSize=12;fontStyle=0;aspect=fixed;pointerEvents=1;shape=mxgraph.aws4.lambda_function;" parent="1" vertex="1">
          <mxGeometry x="-742" y="1021" width="78" height="78" as="geometry" />
        </mxCell>
        <mxCell id="EbYcrWT6pLzNrer3iOrH-33" style="rounded=0;orthogonalLoop=1;jettySize=auto;html=1;" parent="1" source="2KuFmGQ5bhaeHU06HSTh-164" target="SEy2dUGbwva-OiN2ua2p-2" edge="1">
          <mxGeometry relative="1" as="geometry">
            <mxPoint x="-470" y="63" as="sourcePoint" />
            <mxPoint x="-155.37121212121247" y="420" as="targetPoint" />
          </mxGeometry>
        </mxCell>
        <mxCell id="EbYcrWT6pLzNrer3iOrH-34" value="&lt;font style=&quot;font-size: 20px&quot;&gt;Save results&lt;br&gt;&lt;/font&gt;" style="edgeLabel;html=1;align=center;verticalAlign=middle;resizable=0;points=[];" parent="EbYcrWT6pLzNrer3iOrH-33" vertex="1" connectable="0">
          <mxGeometry x="-0.3739" y="19" relative="1" as="geometry">
            <mxPoint x="-26.7" y="6.370000000000001" as="offset" />
          </mxGeometry>
        </mxCell>
      </root>
    </mxGraphModel>
  </diagram>
</mxfile>
